# xmcd
#
# Track frame offsets:
#	150
#	18668
#	32933
#	47658
#	61407
#	74739
#	96595
#	109618
#	123204
#	140080
#	158568
#	171861
#	183742
#	204703
#
# Disc length: 2982 seconds
#
# Revision: 1
# Processed by: cddbd v1.5.2PL0 Copyright (c) Steve Scherf et al.
# Submitted via: audiograbber 1.83.01
#
DISCID=d50ba40e
DTITLE=Micha Keding's Gospel Connection - Let's Sing! Vol.1
DYEAR=2008
DGENRE=Gospel
TTITLE0=Chosen
TTITLE1=Sing A New Song
TTITLE2=I Love You
TTITLE3=Can't Nobody
TTITLE4=Jesus Is A Alive
TTITLE5=I Almost Let Go
TTITLE6=Lord, I Lift Your Name On High
TTITLE7=Ezulwini
TTITLE8=He Still Loves Me
TTITLE9=God's Been Good To Me
TTITLE10=The Gospel Train
TTITLE11=Rain Down
TTITLE12=Open Your Eyes Of My Heart
TTITLE13=J-E-S-U-S
EXTD=
EXTT0=
EXTT1=
EXTT2=
EXTT3=
EXTT4=
EXTT5=
EXTT6=
EXTT7=
EXTT8=
EXTT9=
EXTT10=
EXTT11=
EXTT12=
EXTT13=
PLAYORDER=
